<svg width="13" height="13" viewBox="0 0 12 12" fill="none" xmlns="http://www.w3.org/2000/svg">
    <path
        d="M9.75 7.25246C9.75 9.53974 7.85591 11.3794 5.56879 11.2429C3.21804 11.1025 1.60845 8.84179 1.91165 6.47869C2.09507 5.04109 2.76885 3.80831 3.50253 2.85244C3.6298 2.68554 3.7608 4.02832 3.89182 3.88039C4.02285 3.72865 5.23939 1.62346 5.66239 0.883796C5.74099 0.747243 5.92065 0.705521 6.04792 0.804142C6.89764 1.44518 9.75 3.85384 9.75 7.25246Z"
        fill="#F23030" />
    <path
        d="M8.625 8.1942C8.625 9.70988 7.30545 10.9282 5.70041 10.8732C3.96806 10.8145 2.7797 9.22909 3.03435 7.596C3.40089 5.25465 5.80459 3.75 5.80459 3.75C5.80459 3.75 8.625 5.5152 8.625 8.1942Z"
        fill="#F59460" />
</svg>