<svg width="18" height="18" viewBox="0 0 18 18" fill="none" xmlns="http://www.w3.org/2000/svg">
<path fill-rule="evenodd" clip-rule="evenodd" d="M4.83335 0.458344C5.17853 0.458344 5.45835 0.738166 5.45835 1.08334V1.71894C6.01005 1.70833 6.61786 1.70834 7.28634 1.70834H10.7137C11.3822 1.70834 11.99 1.70833 12.5417 1.71894V1.08334C12.5417 0.738166 12.8215 0.458344 13.1667 0.458344C13.5119 0.458344 13.7917 0.738166 13.7917 1.08334V1.77258C14.0083 1.7891 14.2134 1.80986 14.4075 1.83596C15.3846 1.96731 16.1753 2.24408 16.799 2.86771C17.4226 3.49135 17.6994 4.28214 17.8307 5.25916C17.8727 5.5714 17.9009 5.91217 17.9198 6.2834C17.9447 6.35089 17.9584 6.42386 17.9584 6.50001C17.9584 6.55778 17.9505 6.61371 17.9358 6.66681C17.9584 7.33513 17.9584 8.09397 17.9584 8.953V10.7137C17.9584 12.2452 17.9584 13.4582 17.8307 14.4075C17.6994 15.3845 17.4226 16.1753 16.799 16.799C16.1753 17.4226 15.3846 17.6994 14.4075 17.8307C13.4582 17.9584 12.2452 17.9584 10.7137 17.9583H7.28635C5.75488 17.9584 4.54185 17.9584 3.5925 17.8307C2.61548 17.6994 1.82469 17.4226 1.20106 16.799C0.577421 16.1753 0.300656 15.3845 0.1693 14.4075C0.0416635 13.4582 0.0416741 12.2452 0.0416873 10.7137V8.953C0.0416799 8.09397 0.0416733 7.33513 0.0641945 6.66682C0.049525 6.61372 0.0416876 6.55778 0.0416876 6.50001C0.0416876 6.42386 0.0553075 6.35088 0.0802443 6.2834C0.0991488 5.91216 0.12732 5.5714 0.1693 5.25916C0.300656 4.28214 0.577421 3.49135 1.20106 2.86771C1.82469 2.24408 2.61548 1.96731 3.5925 1.83596C3.78661 1.80986 3.99173 1.7891 4.20835 1.77258V1.08334C4.20835 0.738166 4.48818 0.458344 4.83335 0.458344ZM1.30259 7.12501C1.29195 7.66895 1.29169 8.28833 1.29169 9.00001V10.6667C1.29169 12.2557 1.29301 13.3846 1.40815 14.241C1.52087 15.0794 1.73227 15.5624 2.08494 15.9151C2.43761 16.2678 2.92065 16.4792 3.75906 16.5919C4.61545 16.707 5.74434 16.7083 7.33335 16.7083H10.6667C12.2557 16.7083 13.3846 16.707 14.241 16.5919C15.0794 16.4792 15.5624 16.2678 15.9151 15.9151C16.2678 15.5624 16.4792 15.0794 16.5919 14.241C16.707 13.3846 16.7084 12.2557 16.7084 10.6667V9.00001C16.7084 8.28833 16.7081 7.66895 16.6974 7.12501H1.30259ZM16.6403 5.87501H1.35976C1.3731 5.71718 1.38906 5.56771 1.40815 5.42572C1.52087 4.58731 1.73227 4.10427 2.08494 3.7516C2.43761 3.39892 2.92065 3.18753 3.75906 3.07481C4.61545 2.95967 5.74434 2.95834 7.33335 2.95834H10.6667C12.2557 2.95834 13.3846 2.95967 14.241 3.07481C15.0794 3.18753 15.5624 3.39892 15.9151 3.7516C16.2678 4.10427 16.4792 4.58731 16.5919 5.42572C16.611 5.56771 16.6269 5.71719 16.6403 5.87501Z" fill="#64748B"/>
</svg>
