<svg width="18" height="18" viewBox="0 0 18 18" fill="none" xmlns="http://www.w3.org/2000/svg">
<path d="M9.62502 6.49999C9.62502 6.15481 9.3452 5.87499 9.00002 5.87499C8.65484 5.87499 8.37502 6.15481 8.37502 6.49999L8.37502 8.37501H6.50002C6.15484 8.37501 5.87502 8.65483 5.87502 9.00001C5.87502 9.34519 6.15484 9.62501 6.50002 9.62501H8.37502V11.5C8.37502 11.8452 8.65484 12.125 9.00002 12.125C9.3452 12.125 9.62502 11.8452 9.62502 11.5L9.62502 9.62501H11.5C11.8452 9.62501 12.125 9.34519 12.125 9.00001C12.125 8.65483 11.8452 8.37501 11.5 8.37501H9.62502V6.49999Z" fill="white"/>
<path fill-rule="evenodd" clip-rule="evenodd" d="M9.04784 0.0416567H8.95221C7.02855 0.0416463 5.52101 0.0416382 4.34478 0.199779C3.14083 0.361645 2.19081 0.699429 1.44513 1.4451C0.69946 2.19078 0.361676 3.1408 0.19981 4.34474C0.0416687 5.52098 0.0416768 7.02851 0.0416872 8.95216V9.0478C0.0416768 10.9715 0.0416687 12.479 0.19981 13.6552C0.361676 14.8592 0.69946 15.8092 1.44513 16.5549C2.19081 17.3006 3.14083 17.6383 4.34478 17.8002C5.52102 17.9583 7.02855 17.9583 8.95221 17.9583H9.04783C10.9715 17.9583 12.479 17.9583 13.6553 17.8002C14.8592 17.6383 15.8092 17.3006 16.5549 16.5549C17.3006 15.8092 17.6384 14.8592 17.8002 13.6552C17.9584 12.479 17.9584 10.9715 17.9584 9.0478V8.95218C17.9584 7.02852 17.9584 5.52099 17.8002 4.34474C17.6384 3.1408 17.3006 2.19078 16.5549 1.4451C15.8092 0.699429 14.8592 0.361645 13.6553 0.199779C12.479 0.0416382 10.9715 0.0416463 9.04784 0.0416567ZM2.32902 2.32899C2.80373 1.85427 3.446 1.58186 4.51133 1.43863C5.59465 1.29298 7.01817 1.29166 9.00002 1.29166C10.9819 1.29166 12.4054 1.29298 13.4887 1.43863C14.554 1.58186 15.1963 1.85427 15.671 2.32899C16.1457 2.8037 16.4181 3.44597 16.5614 4.5113C16.707 5.59462 16.7084 7.01814 16.7084 8.99999C16.7084 10.9818 16.707 12.4054 16.5614 13.4887C16.4181 14.554 16.1457 15.1963 15.671 15.671C15.1963 16.1457 14.554 16.4181 13.4887 16.5613C12.4054 16.707 10.9819 16.7083 9.00002 16.7083C7.01817 16.7083 5.59465 16.707 4.51133 16.5613C3.446 16.4181 2.80373 16.1457 2.32902 15.671C1.8543 15.1963 1.58189 14.554 1.43866 13.4887C1.29302 12.4054 1.29169 10.9818 1.29169 8.99999C1.29169 7.01814 1.29302 5.59462 1.43866 4.5113C1.58189 3.44597 1.8543 2.8037 2.32902 2.32899Z" fill="white"/>
</svg>
