<svg width="18" height="18" viewBox="0 0 18 18" fill="none" xmlns="http://www.w3.org/2000/svg">
<path fill-rule="evenodd" clip-rule="evenodd" d="M4.37335 0.458344C3.62462 0.458321 3.00026 0.458301 2.50461 0.524939C1.98145 0.595276 1.50912 0.750002 1.12956 1.12956C0.750002 1.50912 0.595276 1.98145 0.524939 2.50461C0.458301 3.00026 0.458321 3.6246 0.458344 4.37332V4.46001C0.458321 5.20874 0.458301 5.8331 0.524939 6.32875C0.595276 6.85191 0.750002 7.32424 1.12956 7.7038C1.50912 8.08336 1.98145 8.23808 2.50461 8.30842C3.00026 8.37506 3.6246 8.37504 4.37332 8.37502H4.46001C5.20873 8.37504 5.8331 8.37506 6.32875 8.30842C6.85191 8.23808 7.32424 8.08336 7.7038 7.7038C8.08336 7.32424 8.23808 6.85191 8.30842 6.32875C8.37506 5.8331 8.37504 5.20876 8.37502 4.46003V4.37335C8.37504 3.62463 8.37506 3.00026 8.30842 2.50461C8.23808 1.98145 8.08336 1.50912 7.7038 1.12956C7.32424 0.750002 6.85191 0.595276 6.32875 0.524939C5.8331 0.458301 5.20876 0.458321 4.46004 0.458344H4.37335ZM2.01344 2.01344C2.12204 1.90485 2.28662 1.81549 2.67117 1.76379C3.0737 1.70967 3.61334 1.70835 4.41668 1.70835C5.22002 1.70835 5.75966 1.70967 6.16219 1.76379C6.54674 1.81549 6.71132 1.90485 6.81992 2.01344C6.92851 2.12204 7.01787 2.28662 7.06957 2.67117C7.12369 3.0737 7.12501 3.61334 7.12501 4.41668C7.12501 5.22002 7.12369 5.75966 7.06957 6.16219C7.01787 6.54674 6.92851 6.71132 6.81992 6.81992C6.71132 6.92851 6.54674 7.01787 6.16219 7.06957C5.75966 7.12369 5.22002 7.12501 4.41668 7.12501C3.61334 7.12501 3.0737 7.12369 2.67117 7.06957C2.28662 7.01787 2.12204 6.92851 2.01344 6.81992C1.90485 6.71132 1.81549 6.54674 1.76379 6.16219C1.70967 5.75966 1.70835 5.22002 1.70835 4.41668C1.70835 3.61334 1.70967 3.0737 1.76379 2.67117C1.81549 2.28662 1.90485 2.12204 2.01344 2.01344Z" fill="#64748B"/>
<path d="M14.2083 1.91668C14.2083 1.5715 13.9285 1.29168 13.5833 1.29168C13.2382 1.29168 12.9583 1.5715 12.9583 1.91668V3.79168H11.0833C10.7382 3.79168 10.4583 4.0715 10.4583 4.41668C10.4583 4.76186 10.7382 5.04168 11.0833 5.04168H12.9583V6.91668C12.9583 7.26186 13.2382 7.54168 13.5833 7.54168C13.9285 7.54168 14.2083 7.26186 14.2083 6.91668V5.04168H16.0833C16.4285 5.04168 16.7083 4.76186 16.7083 4.41668C16.7083 4.0715 16.4285 3.79168 16.0833 3.79168H14.2083V1.91668Z" fill="#64748B"/>
<path fill-rule="evenodd" clip-rule="evenodd" d="M13.54 9.62501H13.6267C14.3754 9.62499 14.9998 9.62497 15.4954 9.69161C16.0186 9.76194 16.4909 9.91667 16.8705 10.2962C17.25 10.6758 17.4048 11.1481 17.4751 11.6713C17.5417 12.1669 17.5417 12.7913 17.5417 13.54V13.6267C17.5417 14.3754 17.5417 14.9998 17.4751 15.4954C17.4048 16.0186 17.25 16.4909 16.8705 16.8705C16.4909 17.25 16.0186 17.4048 15.4954 17.4751C14.9998 17.5417 14.3754 17.5417 13.6267 17.5417H13.54C12.7913 17.5417 12.1669 17.5417 11.6713 17.4751C11.1481 17.4048 10.6758 17.25 10.2962 16.8705C9.91667 16.4909 9.76194 16.0186 9.69161 15.4954C9.62497 14.9998 9.62499 14.3754 9.62501 13.6267V13.54C9.62499 12.7913 9.62497 12.1669 9.69161 11.6713C9.76194 11.1481 9.91667 10.6758 10.2962 10.2962C10.6758 9.91667 11.1481 9.76194 11.6713 9.69161C12.1669 9.62497 12.7913 9.62499 13.54 9.62501ZM11.8378 10.9305C11.4533 10.9822 11.2887 11.0715 11.1801 11.1801C11.0715 11.2887 10.9822 11.4533 10.9305 11.8378C10.8763 12.2404 10.875 12.78 10.875 13.5833C10.875 14.3867 10.8763 14.9263 10.9305 15.3289C10.9822 15.7134 11.0715 15.878 11.1801 15.9866C11.2887 16.0952 11.4533 16.1845 11.8378 16.2362C12.2404 16.2904 12.78 16.2917 13.5833 16.2917C14.3867 16.2917 14.9263 16.2904 15.3289 16.2362C15.7134 16.1845 15.878 16.0952 15.9866 15.9866C16.0952 15.878 16.1845 15.7134 16.2362 15.3289C16.2904 14.9263 16.2917 14.3867 16.2917 13.5833C16.2917 12.78 16.2904 12.2404 16.2362 11.8378C16.1845 11.4533 16.0952 11.2887 15.9866 11.1801C15.878 11.0715 15.7134 10.9822 15.3289 10.9305C14.9263 10.8763 14.3867 10.875 13.5833 10.875C12.78 10.875 12.2404 10.8763 11.8378 10.9305Z" fill="#64748B"/>
<path fill-rule="evenodd" clip-rule="evenodd" d="M4.37335 9.62501C3.62461 9.62499 3.00026 9.62497 2.50461 9.69161C1.98145 9.76194 1.50912 9.91667 1.12956 10.2962C0.750002 10.6758 0.595276 11.1481 0.524939 11.6713C0.458301 12.1669 0.458321 12.7913 0.458344 13.54V13.6267C0.458321 14.3754 0.458301 14.9998 0.524939 15.4954C0.595276 16.0186 0.750002 16.4909 1.12956 16.8705C1.50912 17.25 1.98145 17.4048 2.50461 17.4751C3.00026 17.5417 3.6246 17.5417 4.37332 17.5417H4.46001C5.20873 17.5417 5.8331 17.5417 6.32875 17.4751C6.85191 17.4048 7.32424 17.25 7.7038 16.8705C8.08336 16.4909 8.23808 16.0186 8.30842 15.4954C8.37506 14.9998 8.37504 14.3754 8.37502 13.6267V13.54C8.37504 12.7913 8.37506 12.1669 8.30842 11.6713C8.23808 11.1481 8.08336 10.6758 7.7038 10.2962C7.32424 9.91667 6.85191 9.76194 6.32875 9.69161C5.8331 9.62497 5.20875 9.62499 4.46001 9.62501H4.37335ZM2.01344 11.1801C2.12204 11.0715 2.28662 10.9822 2.67117 10.9305C3.0737 10.8763 3.61334 10.875 4.41668 10.875C5.22002 10.875 5.75966 10.8763 6.16219 10.9305C6.54674 10.9822 6.71132 11.0715 6.81992 11.1801C6.92851 11.2887 7.01787 11.4533 7.06957 11.8378C7.12369 12.2404 7.12501 12.78 7.12501 13.5833C7.12501 14.3867 7.12369 14.9263 7.06957 15.3289C7.01787 15.7134 6.92851 15.878 6.81992 15.9866C6.71132 16.0952 6.54674 16.1845 6.16219 16.2362C5.75966 16.2904 5.22002 16.2917 4.41668 16.2917C3.61334 16.2917 3.0737 16.2904 2.67117 16.2362C2.28662 16.1845 2.12204 16.0952 2.01344 15.9866C1.90485 15.878 1.81549 15.7134 1.76379 15.3289C1.70967 14.9263 1.70835 14.3867 1.70835 13.5833C1.70835 12.78 1.70967 12.2404 1.76379 11.8378C1.81549 11.4533 1.90485 11.2887 2.01344 11.1801Z" fill="#64748B"/>
</svg>
