<svg width="16" height="18" viewBox="0 0 16 18" fill="none" xmlns="http://www.w3.org/2000/svg">
<path fill-rule="evenodd" clip-rule="evenodd" d="M8 0.0416565C5.81387 0.0416565 4.04167 1.81386 4.04167 3.99999C4.04167 6.18612 5.81387 7.95832 8 7.95832C10.1861 7.95832 11.9583 6.18612 11.9583 3.99999C11.9583 1.81386 10.1861 0.0416565 8 0.0416565ZM5.29167 3.99999C5.29167 2.50422 6.50423 1.29166 8 1.29166C9.49577 1.29166 10.7083 2.50422 10.7083 3.99999C10.7083 5.49576 9.49577 6.70832 8 6.70832C6.50423 6.70832 5.29167 5.49576 5.29167 3.99999Z" fill="#64748B"/>
<path fill-rule="evenodd" clip-rule="evenodd" d="M8 9.20832C6.07204 9.20832 4.29577 9.64656 2.97954 10.3869C1.6829 11.1163 0.708333 12.2217 0.708333 13.5833L0.708278 13.6683C0.707337 14.6365 0.706155 15.8516 1.77201 16.7196C2.29657 17.1468 3.0304 17.4505 4.02184 17.6512C5.01605 17.8524 6.31185 17.9583 8 17.9583C9.68815 17.9583 10.9839 17.8524 11.9782 17.6512C12.9696 17.4505 13.7034 17.1468 14.228 16.7196C15.2938 15.8516 15.2927 14.6365 15.2917 13.6683L15.2917 13.5833C15.2917 12.2217 14.3171 11.1163 13.0205 10.3869C11.7042 9.64656 9.92796 9.20832 8 9.20832ZM1.95833 13.5833C1.95833 12.8739 2.47615 12.1043 3.59237 11.4764C4.689 10.8596 6.24606 10.4583 8 10.4583C9.75394 10.4583 11.311 10.8596 12.4076 11.4764C13.5239 12.1043 14.0417 12.8739 14.0417 13.5833C14.0417 14.6732 14.0081 15.2867 13.4387 15.7503C13.1299 16.0018 12.6137 16.2472 11.7302 16.4261C10.8494 16.6043 9.64519 16.7083 8 16.7083C6.35481 16.7083 5.15062 16.6043 4.26983 16.4261C3.38627 16.2472 2.8701 16.0018 2.56132 15.7503C1.99193 15.2867 1.95833 14.6732 1.95833 13.5833Z" fill="#64748B"/>
</svg>
