<svg width="12" height="12" viewBox="0 0 12 12" fill="none" xmlns="http://www.w3.org/2000/svg">
<path fill-rule="evenodd" clip-rule="evenodd" d="M4.54979 1.26434C4.62437 1.45755 4.5282 1.67464 4.33499 1.74922C4.26428 1.77652 4.1944 1.80551 4.1254 1.83614C3.93611 1.92017 3.71453 1.83485 3.6305 1.64555C3.54646 1.45626 3.63179 1.23469 3.82108 1.15065C3.90134 1.11502 3.98263 1.0813 4.0649 1.04954C4.25811 0.974959 4.4752 1.07113 4.54979 1.26434ZM2.82385 2.1857C2.96668 2.33567 2.96089 2.57304 2.81092 2.71587C2.75608 2.76809 2.70253 2.82165 2.6503 2.87648C2.50747 3.02646 2.27011 3.03225 2.12013 2.88942C1.97016 2.74659 1.96437 2.50922 2.1072 2.35925C2.16783 2.29558 2.23001 2.2334 2.29368 2.17276C2.44365 2.02993 2.68102 2.03572 2.82385 2.1857ZM1.57999 3.69607C1.76928 3.7801 1.85461 4.00167 1.77057 4.19097C1.73994 4.25996 1.71095 4.32984 1.68365 4.40056C1.60907 4.59377 1.39198 4.68994 1.19877 4.61536C1.00556 4.54077 0.909392 4.32368 0.983976 4.13047C1.01574 4.0482 1.04946 3.9669 1.08509 3.88665C1.16912 3.69736 1.39069 3.61203 1.57999 3.69607ZM1.01054 5.56759C1.21759 5.57259 1.38138 5.74449 1.37638 5.95154C1.37546 5.98943 1.375 6.02744 1.375 6.06557C1.375 6.10369 1.37546 6.1417 1.37638 6.17959C1.38138 6.38664 1.21759 6.55854 1.01054 6.56354C0.803496 6.56855 0.631597 6.40476 0.626595 6.19771C0.625533 6.15378 0.625 6.10973 0.625 6.06557C0.625 6.0214 0.625533 5.97735 0.626595 5.93342C0.631597 5.72638 0.803496 5.56259 1.01054 5.56759ZM10.8012 7.51578C10.9944 7.59036 11.0906 7.80745 11.016 8.00066C10.9843 8.08294 10.9505 8.16423 10.9149 8.24448C10.8309 8.43377 10.6093 8.5191 10.42 8.43507C10.2307 8.35103 10.1454 8.12946 10.2294 7.94017C10.2601 7.87117 10.289 7.80129 10.3163 7.73057C10.3909 7.53736 10.608 7.4412 10.8012 7.51578ZM1.19877 7.51578C1.39198 7.4412 1.60907 7.53736 1.68366 7.73057C1.71095 7.80129 1.73994 7.87117 1.77057 7.94017C1.85461 8.12946 1.76928 8.35103 1.57999 8.43507C1.39069 8.5191 1.16912 8.43378 1.08509 8.24448C1.04946 8.16423 1.01574 8.08294 0.983976 8.00066C0.909392 7.80745 1.00556 7.59036 1.19877 7.51578ZM9.87987 9.24171C10.0298 9.38455 10.0356 9.62191 9.8928 9.77189C9.83217 9.83555 9.76999 9.89774 9.70632 9.95837C9.55635 10.1012 9.31898 10.0954 9.17615 9.94543C9.03332 9.79546 9.03911 9.55809 9.18908 9.41526C9.24392 9.36304 9.29747 9.30948 9.3497 9.25465C9.49253 9.10468 9.72989 9.09888 9.87987 9.24171ZM2.12013 9.24172C2.27011 9.09888 2.50747 9.10468 2.6503 9.25465C2.70253 9.30949 2.75608 9.36304 2.81092 9.41526C2.96089 9.55809 2.96668 9.79546 2.82385 9.94543C2.68102 10.0954 2.44365 10.1012 2.29368 9.95837C2.23001 9.89774 2.16783 9.83556 2.1072 9.77189C1.96437 9.62191 1.97016 9.38455 2.12013 9.24172ZM3.6305 10.4856C3.71453 10.2963 3.93611 10.211 4.1254 10.295C4.1944 10.3256 4.26428 10.3546 4.33499 10.3819C4.52821 10.4565 4.62437 10.6736 4.54979 10.8668C4.4752 11.06 4.25811 11.1562 4.0649 11.0816C3.98263 11.0498 3.90134 11.0161 3.82108 10.9805C3.63179 10.8964 3.54646 10.6749 3.6305 10.4856ZM8.3695 10.4856C8.45354 10.6749 8.36821 10.8964 8.17892 10.9805C8.09866 11.0161 8.01737 11.0498 7.9351 11.0816C7.74189 11.1562 7.5248 11.06 7.45021 10.8668C7.37563 10.6736 7.4718 10.4565 7.66501 10.3819C7.73572 10.3546 7.8056 10.3256 7.8746 10.295C8.06389 10.211 8.28547 10.2963 8.3695 10.4856ZM5.50202 11.055C5.50703 10.848 5.67893 10.6842 5.88597 10.6892C5.92386 10.6901 5.96187 10.6906 6 10.6906C6.03813 10.6906 6.07614 10.6901 6.11403 10.6892C6.32107 10.6842 6.49297 10.848 6.49798 11.055C6.50298 11.2621 6.33919 11.434 6.13214 11.439C6.08822 11.44 6.04417 11.4406 6 11.4406C5.95583 11.4406 5.91178 11.44 5.86786 11.439C5.66081 11.434 5.49702 11.2621 5.50202 11.055Z" fill="#1C274C"/>
<path fill-rule="evenodd" clip-rule="evenodd" d="M5.625 1.06557C5.625 0.85846 5.79289 0.690567 6 0.690567C8.96853 0.690567 11.375 3.09704 11.375 6.06557C11.375 6.27267 11.2071 6.44057 11 6.44057C10.7929 6.44057 10.625 6.27267 10.625 6.06557C10.625 3.51125 8.55432 1.44057 6 1.44057C5.79289 1.44057 5.625 1.27267 5.625 1.06557ZM6 4.19057C6.20711 4.19057 6.375 4.35846 6.375 4.56557V6.19057H8C8.20711 6.19057 8.375 6.35846 8.375 6.56557C8.375 6.77267 8.20711 6.94057 8 6.94057H6C5.79289 6.94057 5.625 6.77267 5.625 6.56557V4.56557C5.625 4.35846 5.79289 4.19057 6 4.19057Z" fill="#1C274C"/>
</svg>
