<svg xmlns="http://www.w3.org/2000/svg" width="20" height="20" viewBox="0 0 20 20">
  <g id="Group_4240" data-name="Group 4240" transform="translate(-782 -385)">
    <g id="Profile" transform="translate(-486 181)">
      <g id="Group_4236" data-name="Group 4236">
        <path id="Path_4979" data-name="Path 4979" d="M1278,224a10,10,0,1,1,10-10A10.011,10.011,0,0,1,1278,224Zm0-18a8,8,0,1,0,8,8A8.009,8.009,0,0,0,1278,206Z"/>
      </g>
      <g id="Group_4237" data-name="Group 4237">
        <path id="Path_4980" data-name="Path 4980" d="M1278,214a3,3,0,1,1,3-3A3,3,0,0,1,1278,214Zm0-4a1,1,0,1,0,1,1A1,1,0,0,0,1278,210Z" />
      </g>
      <g id="Group_4238" data-name="Group 4238">
        <path id="Path_4981" data-name="Path 4981" d="M1282.97,222.5h-.008a1,1,0,0,1-.992-1.008l0-.473a3,3,0,0,0-3-3.019h-1.948a3,3,0,0,0-3,3.02l0,.472a1,1,0,0,1-.992,1.008h-.008a1,1,0,0,1-1-.992l0-.473a5,5,0,0,1,5-5.035h1.948a5,5,0,0,1,5,5.034l0,.474A1,1,0,0,1,1282.97,222.5Z"/>
      </g>
    </g>
  </g>
</svg>
