<svg xmlns="http://www.w3.org/2000/svg" width="24" height="24" viewBox="0 0 21 21" fill="none">
    <path
        d="M10.5791 20.0869C5.0691 20.0869 0.579102 15.5969 0.579102 10.0869C0.579102 4.57691 5.0691 0.0869141 10.5791 0.0869141C16.0891 0.0869141 20.5791 4.57691 20.5791 10.0869C20.5791 15.5969 16.0891 20.0869 10.5791 20.0869ZM10.5791 2.08691C6.1691 2.08691 2.5791 5.67691 2.5791 10.0869C2.5791 14.4969 6.1691 18.0869 10.5791 18.0869C14.9891 18.0869 18.5791 14.4969 18.5791 10.0869C18.5791 5.67691 14.9891 2.08691 10.5791 2.08691Z"
        fill="#202B46" />
    <path
        d="M10.5791 10.0869C8.9291 10.0869 7.5791 8.73691 7.5791 7.08691C7.5791 5.43691 8.9291 4.08691 10.5791 4.08691C12.2291 4.08691 13.5791 5.43691 13.5791 7.08691C13.5791 8.73691 12.2291 10.0869 10.5791 10.0869ZM10.5791 6.08691C10.0291 6.08691 9.5791 6.53691 9.5791 7.08691C9.5791 7.63691 10.0291 8.08691 10.5791 8.08691C11.1291 8.08691 11.5791 7.63691 11.5791 7.08691C11.5791 6.53691 11.1291 6.08691 10.5791 6.08691Z"
        fill="#202B46" />
    <path
        d="M15.5493 18.5869C14.9993 18.5869 14.5493 18.1269 14.5593 17.5769V17.1069C14.5593 16.3069 14.2593 15.5469 13.6893 14.9769C13.1193 14.4069 12.3693 14.0869 11.5593 14.0869H9.60928C8.80928 14.0869 8.04928 14.3969 7.47929 14.9769C6.90929 15.5569 6.59929 16.3069 6.60929 17.1069V17.5769C6.60929 18.1269 6.16928 18.5769 5.61928 18.5869C5.06928 18.5869 4.61928 18.1469 4.61928 17.5969V17.1269C4.60928 15.7869 5.11928 14.5169 6.06928 13.5669C7.01928 12.6169 8.27928 12.0869 9.61929 12.0869H11.5693C12.9093 12.0869 14.1693 12.6069 15.1193 13.5669C16.0693 14.5169 16.5793 15.7869 16.5693 17.1269V17.5969C16.5693 18.1469 16.1093 18.5869 15.5693 18.5869H15.5493Z"
        fill="#202B46" />
</svg>