<svg width="14" height="14" viewBox="0 0 14 14" fill="none" xmlns="http://www.w3.org/2000/svg">
<path fill-rule="evenodd" clip-rule="evenodd" d="M6.99999 1.66973C4.01995 1.66973 1.60416 4.08553 1.60416 7.06557C1.60416 7.92952 1.80688 8.74486 2.16695 9.46779C2.31147 9.75794 2.36712 10.1049 2.27594 10.4457L1.9285 11.7442C1.86469 11.9827 2.08288 12.2009 2.32136 12.1371L3.61988 11.7896C3.96066 11.6984 4.30762 11.7541 4.59777 11.8986C5.32069 12.2587 6.13604 12.4614 6.99999 12.4614C9.98003 12.4614 12.3958 10.0456 12.3958 7.06557C12.3958 4.08553 9.98003 1.66973 6.99999 1.66973ZM0.729156 7.06557C0.729156 3.60228 3.5367 0.794733 6.99999 0.794733C10.4633 0.794733 13.2708 3.60228 13.2708 7.06557C13.2708 10.5289 10.4633 13.3364 6.99999 13.3364C5.99764 13.3364 5.04905 13.1009 4.20766 12.6818C4.0821 12.6193 3.9539 12.606 3.84605 12.6349L2.54752 12.9823C1.65862 13.2202 0.845399 12.4069 1.08324 11.518L1.43068 10.2195C1.45953 10.1117 1.44627 9.98345 1.38373 9.8579C0.964652 9.01651 0.729156 8.06791 0.729156 7.06557ZM4.22916 6.19057C4.22916 5.94894 4.42503 5.75307 4.66666 5.75307H9.33332C9.57495 5.75307 9.77082 5.94894 9.77082 6.19057C9.77082 6.43219 9.57495 6.62807 9.33332 6.62807H4.66666C4.42503 6.62807 4.22916 6.43219 4.22916 6.19057ZM4.22916 8.23223C4.22916 7.99061 4.42503 7.79473 4.66666 7.79473H7.87499C8.11661 7.79473 8.31249 7.99061 8.31249 8.23223C8.31249 8.47386 8.11661 8.66973 7.87499 8.66973H4.66666C4.42503 8.66973 4.22916 8.47386 4.22916 8.23223Z" fill="#64748B"/>
</svg>
